# xmcd CD database file
#
# Track frame offsets:
#	150
#	15625
#	35780
#	60333
#	87611
#	113356
#	132926
#	168636
#	196356
#	224038
#	256903
#	277591
#	316474
#
# Disc length: 4506 seconds
#
# Revision: 0
# Processed by: cddbd v1.5.1PL0 Copyright (c) Steve Scherf et al.
# Submitted via: CDex 1.51
#
DISCID=b711980d
DTITLE=XJAPAN - XJAPANオリジナルベスト
DYEAR=1900
DGENRE=Rock
TTITLE0=I'll kill you
TTITLE1=BLUE BLOOD
TTITLE2=Rusty Nail
TTITLE3=Vanishing Love
TTITLE4=Kurenai (紅)
TTITLE5=Stub Me In The Back
TTITLE6=DAHLIA
TTITLE7=WEEK END
TTITLE8=Sadistic Desire
TTITLE9=X
TTITLE10=Crucify My Love
TTITLE11=Forever Love
TTITLE12=STANDING SEX
EXTD=
EXTT0=
EXTT1=
EXTT2=
EXTT3=
EXTT4=
EXTT5=
EXTT6=
EXTT7=
EXTT8=
EXTT9=
EXTT10=
EXTT11=
EXTT12=
PLAYORDER=
